<svg width="36" height="36" viewBox="0 0 36 36" fill="none" xmlns="http://www.w3.org/2000/svg">
<g clip-path="url(#clip0_147_1742)">
<g clip-path="url(#clip1_147_1742)">
<g clip-path="url(#clip2_147_1742)">
<mask id="mask0_147_1742" style="mask-type:luminance" maskUnits="userSpaceOnUse" x="0" y="0" width="36" height="37">
<path d="M30 0.00976562H6C2.68629 0.00976562 0 2.69606 0 6.00977V30.0098C0 33.3235 2.68629 36.0098 6 36.0098H30C33.3137 36.0098 36 33.3235 36 30.0098V6.00977C36 2.69606 33.3137 0.00976562 30 0.00976562Z" fill="white"/>
</mask>
<g mask="url(#mask0_147_1742)">
<path d="M30 0.00976562H6C2.68629 0.00976562 0 2.69606 0 6.00977V30.0098C0 33.3235 2.68629 36.0098 6 36.0098H30C33.3137 36.0098 36 33.3235 36 30.0098V6.00977C36 2.69606 33.3137 0.00976562 30 0.00976562Z" fill="#CEE7FE"/>
<g filter="url(#filter0_d_147_1742)">
<path d="M6 11.0098C6 8.24835 8.23858 6.00977 11 6.00977H23.3431C24.404 6.00977 25.4214 6.4312 26.1716 7.18134L34.8284 15.8382C35.5786 16.5884 36 17.6058 36 18.6667V36.0098H6V11.0098Z" fill="white"/>
</g>
<path d="M12 16.5098C12 15.6814 12.6716 15.0098 13.5 15.0098H20.5C21.3284 15.0098 22 15.6814 22 16.5098C22 17.3382 21.3284 18.0098 20.5 18.0098H13.5C12.6716 18.0098 12 17.3382 12 16.5098Z" fill="#96C7F2"/>
<path d="M12 22.5098C12 21.6814 12.6716 21.0098 13.5 21.0098H27.5C28.3284 21.0098 29 21.6814 29 22.5098C29 23.3382 28.3284 24.0098 27.5 24.0098H13.5C12.6716 24.0098 12 23.3382 12 22.5098Z" fill="#96C7F2"/>
<path d="M12 28.5098C12 27.6814 12.6716 27.0098 13.5 27.0098H27.5C28.3284 27.0098 29 27.6814 29 28.5098C29 29.3382 28.3284 30.0098 27.5 30.0098H13.5C12.6716 30.0098 12 29.3382 12 28.5098Z" fill="#96C7F2"/>
<mask id="mask1_147_1742" style="mask-type:alpha" maskUnits="userSpaceOnUse" x="6" y="6" width="30" height="31">
<path d="M6 11.0098C6 8.24835 8.23858 6.00977 11 6.00977H23.3431C24.404 6.00977 25.4214 6.4312 26.1716 7.18134L34.8284 15.8382C35.5786 16.5884 36 17.6058 36 18.6667V36.0098H6V11.0098Z" fill="white"/>
</mask>
<g mask="url(#mask1_147_1742)">
<path d="M25 13.0098V6.00977C25 6.00977 28.5455 8.46432 31.5455 11.4643C34.5455 14.4643 37 18.0098 37 18.0098H30C27.2386 18.0098 25 15.7712 25 13.0098Z" fill="#0091FF"/>
</g>
</g>
<path d="M30 0.509766H6C2.96243 0.509766 0.5 2.9722 0.5 6.00977V30.0098C0.5 33.0473 2.96243 35.5098 6 35.5098H30C33.0376 35.5098 35.5 33.0473 35.5 30.0098V6.00977C35.5 2.9722 33.0376 0.509766 30 0.509766Z" stroke="black" stroke-opacity="0.07"/>
</g>
</g>
</g>
<defs>
<filter id="filter0_d_147_1742" x="-2" y="-1.99023" width="46" height="46" filterUnits="userSpaceOnUse" color-interpolation-filters="sRGB">
<feFlood flood-opacity="0" result="BackgroundImageFix"/>
<feColorMatrix in="SourceAlpha" type="matrix" values="0 0 0 0 0 0 0 0 0 0 0 0 0 0 0 0 0 0 127 0" result="hardAlpha"/>
<feOffset/>
<feGaussianBlur stdDeviation="4"/>
<feComposite in2="hardAlpha" operator="out"/>
<feColorMatrix type="matrix" values="0 0 0 0 0 0 0 0 0 0 0 0 0 0 0 0 0 0 0.055 0"/>
<feBlend mode="normal" in2="BackgroundImageFix" result="effect1_dropShadow_147_1742"/>
<feBlend mode="normal" in="SourceGraphic" in2="effect1_dropShadow_147_1742" result="shape"/>
</filter>
<clipPath id="clip0_147_1742">
<rect width="36" height="36" fill="white" transform="translate(0 0.00976562)"/>
</clipPath>
<clipPath id="clip1_147_1742">
<rect width="36" height="36" fill="white" transform="translate(0 0.00976562)"/>
</clipPath>
<clipPath id="clip2_147_1742">
<rect width="36" height="36" fill="white" transform="translate(0 0.00976562)"/>
</clipPath>
</defs>
</svg>
