<svg width="36" height="37" viewBox="0 0 36 37" fill="none" xmlns="http://www.w3.org/2000/svg">
<g clip-path="url(#clip0_147_1780)">
<g clip-path="url(#clip1_147_1780)">
<g clip-path="url(#clip2_147_1780)">
<mask id="mask0_147_1780" style="mask-type:luminance" maskUnits="userSpaceOnUse" x="0" y="0" width="36" height="37">
<path d="M0 6.01953C0 2.70582 2.68629 0.0195312 6 0.0195312H30C33.3137 0.0195312 36 2.70582 36 6.01953V30.0195C36 33.3332 33.3137 36.0195 30 36.0195H6C2.68629 36.0195 0 33.3332 0 30.0195V6.01953Z" fill="white"/>
</mask>
<g mask="url(#mask0_147_1780)">
<path d="M0 6.01953C0 2.70582 2.68629 0.0195312 6 0.0195312H30C33.3137 0.0195312 36 2.70582 36 6.01953V30.0195C36 33.3332 33.3137 36.0195 30 36.0195H6C2.68629 36.0195 0 33.3332 0 30.0195V6.01953Z" fill="#D9DAFF"/>
<g filter="url(#filter0_d_147_1780)">
<path d="M6 11.0195C6 8.25811 8.23858 6.01953 11 6.01953H36V36.0195H6V11.0195Z" fill="white"/>
</g>
<path fill-rule="evenodd" clip-rule="evenodd" d="M12.9068 17.141C13.5385 17.0752 14.3985 17.0195 15.5 17.0195C16.6015 17.0195 17.4615 17.0752 18.0932 17.141C19.0521 17.2409 19.7786 17.9674 19.8785 18.9263C19.9443 19.558 20 20.418 20 21.5195C20 22.6534 19.941 23.5315 19.8727 24.1679C19.7733 25.0938 19.0812 25.8014 18.1489 25.8993C17.5265 25.9646 16.6588 26.0195 15.5 26.0195C14.3412 26.0195 13.4735 25.9646 12.8511 25.8993C11.9188 25.8014 11.2267 25.0938 11.1273 24.1679C11.059 23.5315 11 22.6534 11 21.5195C11 20.418 11.0557 19.558 11.1215 18.9263C11.2214 17.9674 11.9479 17.2409 12.9068 17.141Z" fill="#5A43D6"/>
<path fill-rule="evenodd" clip-rule="evenodd" d="M22.9068 17.141C23.5385 17.0752 24.3985 17.0195 25.5 17.0195C26.6015 17.0195 27.4615 17.0752 28.0932 17.141C29.0521 17.2409 29.7786 17.9674 29.8785 18.9263C29.9443 19.558 30 20.418 30 21.5195C30 22.6534 29.941 23.5315 29.8727 24.1679C29.7733 25.0938 29.0812 25.8014 28.1489 25.8993C27.5265 25.9646 26.6588 26.0195 25.5 26.0195C24.3412 26.0195 23.4735 25.9646 22.8511 25.8993C21.9188 25.8014 21.2267 25.0938 21.1273 24.1679C21.059 23.5315 21 22.6534 21 21.5195C21 20.418 21.0557 19.558 21.1215 18.9263C21.2214 17.9674 21.9479 17.2409 22.9068 17.141Z" fill="#5A43D6"/>
<path d="M23.8474 21.8527C23.857 21.8587 23.8524 21.8558 23.8619 21.862C23.9664 21.9296 24.5186 22.2673 25.0457 22.9139C25.0525 22.9223 25.0593 22.9307 25.0661 22.9392C25.0661 22.9392 25.0706 22.9281 25.0797 22.9073C25.1517 22.7417 25.3602 22.1702 25.9912 21.3546C26.6876 20.4545 27.401 19.9499 27.4978 19.8834C27.5055 19.8782 27.5127 19.8731 27.5203 19.8678C27.5203 19.8678 27.5231 19.8659 27.5255 19.8643" stroke="white" stroke-width="1.5" stroke-linecap="round" stroke-linejoin="round"/>
<path fill-rule="evenodd" clip-rule="evenodd" d="M32.9068 17.141C33.5385 17.0752 34.3985 17.0195 35.5 17.0195C36.6015 17.0195 37.4615 17.0752 38.0932 17.141C39.0521 17.2409 39.7786 17.9674 39.8785 18.9263C39.9443 19.558 40 20.418 40 21.5195C40 22.6534 39.941 23.5315 39.8727 24.1679C39.7733 25.0938 39.0812 25.8014 38.1489 25.8993C37.5265 25.9646 36.6588 26.0195 35.5 26.0195C34.3412 26.0195 33.4735 25.9646 32.8511 25.8993C31.9188 25.8014 31.2267 25.0938 31.1273 24.1679C31.059 23.5315 31 22.6534 31 21.5195C31 20.418 31.0557 19.558 31.1215 18.9263C31.2214 17.9674 31.9479 17.2409 32.9068 17.141Z" fill="#5A43D6"/>
<path d="M11 12.5195C11 11.6911 11.6716 11.0195 12.5 11.0195H29.5C30.3284 11.0195 31 11.6911 31 12.5195C31 13.3479 30.3284 14.0195 29.5 14.0195H12.5C11.6716 14.0195 11 13.3479 11 12.5195Z" fill="#CACBFF"/>
<path d="M11 30.5195C11 29.6911 11.6716 29.0195 12.5 29.0195H22.5C23.3284 29.0195 24 29.6911 24 30.5195C24 31.3479 23.3284 32.0195 22.5 32.0195H12.5C11.6716 32.0195 11 31.3479 11 30.5195Z" fill="#CACBFF"/>
</g>
<path d="M0.5 6.01953C0.5 2.98196 2.96243 0.519531 6 0.519531H30C33.0376 0.519531 35.5 2.98196 35.5 6.01953V30.0195C35.5 33.0571 33.0376 35.5195 30 35.5195H6C2.96243 35.5195 0.5 33.0571 0.5 30.0195V6.01953Z" stroke="black" stroke-opacity="0.07"/>
</g>
</g>
</g>
<defs>
<filter id="filter0_d_147_1780" x="-2" y="-1.98047" width="46" height="46" filterUnits="userSpaceOnUse" color-interpolation-filters="sRGB">
<feFlood flood-opacity="0" result="BackgroundImageFix"/>
<feColorMatrix in="SourceAlpha" type="matrix" values="0 0 0 0 0 0 0 0 0 0 0 0 0 0 0 0 0 0 127 0" result="hardAlpha"/>
<feOffset/>
<feGaussianBlur stdDeviation="4"/>
<feComposite in2="hardAlpha" operator="out"/>
<feColorMatrix type="matrix" values="0 0 0 0 0 0 0 0 0 0 0 0 0 0 0 0 0 0 0.055 0"/>
<feBlend mode="normal" in2="BackgroundImageFix" result="effect1_dropShadow_147_1780"/>
<feBlend mode="normal" in="SourceGraphic" in2="effect1_dropShadow_147_1780" result="shape"/>
</filter>
<clipPath id="clip0_147_1780">
<rect width="36" height="36" fill="white" transform="translate(0 0.0195312)"/>
</clipPath>
<clipPath id="clip1_147_1780">
<rect width="36" height="36" fill="white" transform="translate(0 0.0195312)"/>
</clipPath>
<clipPath id="clip2_147_1780">
<rect width="36" height="36" fill="white" transform="translate(0 0.0195312)"/>
</clipPath>
</defs>
</svg>
