<svg width="36" height="36" viewBox="0 0 36 36" fill="none" xmlns="http://www.w3.org/2000/svg">
<g clip-path="url(#clip0_147_1710)">
<mask id="mask0_147_1710" style="mask-type:luminance" maskUnits="userSpaceOnUse" x="0" y="0" width="36" height="37">
<path d="M0 6.00977C0 2.69606 2.68629 0.00976562 6 0.00976562H30C33.3137 0.00976562 36 2.69606 36 6.00977V30.0098C36 33.3235 33.3137 36.0098 30 36.0098H6C2.68629 36.0098 0 33.3235 0 30.0098V6.00977Z" fill="white"/>
</mask>
<g mask="url(#mask0_147_1710)">
<path d="M0 6.00977C0 2.69606 2.68629 0.00976562 6 0.00976562H30C33.3137 0.00976562 36 2.69606 36 6.00977V30.0098C36 33.3235 33.3137 36.0098 30 36.0098H6C2.68629 36.0098 0 33.3235 0 30.0098V6.00977Z" fill="#553ED0"/>
<g filter="url(#filter0_d_147_1710)">
<path d="M6 11.0098C6 8.24835 8.23858 6.00977 11 6.00977H36V36.0098H6V11.0098Z" fill="white"/>
</g>
<path d="M19 13.5098C19 12.6814 19.6716 12.0098 20.5 12.0098H37.5C38.3284 12.0098 39 12.6814 39 13.5098C39 14.3382 38.3284 15.0098 37.5 15.0098H20.5C19.6716 15.0098 19 14.3382 19 13.5098Z" fill="#9B98FD"/>
<path d="M13.5 16.0098C14.8807 16.0098 16 14.8905 16 13.5098C16 12.1291 14.8807 11.0098 13.5 11.0098C12.1193 11.0098 11 12.1291 11 13.5098C11 14.8905 12.1193 16.0098 13.5 16.0098Z" fill="#5A43D6"/>
<path d="M19 21.5098C19 20.6814 19.6716 20.0098 20.5 20.0098H37.5C38.3284 20.0098 39 20.6814 39 21.5098C39 22.3382 38.3284 23.0098 37.5 23.0098H20.5C19.6716 23.0098 19 22.3382 19 21.5098Z" fill="#9B98FD"/>
<path d="M13.5 24.0098C14.8807 24.0098 16 22.8905 16 21.5098C16 20.1291 14.8807 19.0098 13.5 19.0098C12.1193 19.0098 11 20.1291 11 21.5098C11 22.8905 12.1193 24.0098 13.5 24.0098Z" fill="#5A43D6"/>
<path d="M19 29.5098C19 28.6814 19.6716 28.0098 20.5 28.0098H37.5C38.3284 28.0098 39 28.6814 39 29.5098C39 30.3382 38.3284 31.0098 37.5 31.0098H20.5C19.6716 31.0098 19 30.3382 19 29.5098Z" fill="#9B98FD"/>
<path d="M13.5 32.0098C14.8807 32.0098 16 30.8905 16 29.5098C16 28.1291 14.8807 27.0098 13.5 27.0098C12.1193 27.0098 11 28.1291 11 29.5098C11 30.8905 12.1193 32.0098 13.5 32.0098Z" fill="#5A43D6"/>
</g>
<path d="M0.5 6.00977C0.5 2.9722 2.96243 0.509766 6 0.509766H30C33.0376 0.509766 35.5 2.9722 35.5 6.00977V30.0098C35.5 33.0474 33.0376 35.5098 30 35.5098H6C2.96243 35.5098 0.5 33.0474 0.5 30.0098V6.00977Z" stroke="black" stroke-opacity="0.07"/>
</g>
<defs>
<filter id="filter0_d_147_1710" x="-2" y="-1.99023" width="46" height="46" filterUnits="userSpaceOnUse" color-interpolation-filters="sRGB">
<feFlood flood-opacity="0" result="BackgroundImageFix"/>
<feColorMatrix in="SourceAlpha" type="matrix" values="0 0 0 0 0 0 0 0 0 0 0 0 0 0 0 0 0 0 127 0" result="hardAlpha"/>
<feOffset/>
<feGaussianBlur stdDeviation="4"/>
<feComposite in2="hardAlpha" operator="out"/>
<feColorMatrix type="matrix" values="0 0 0 0 0 0 0 0 0 0 0 0 0 0 0 0 0 0 0.055 0"/>
<feBlend mode="normal" in2="BackgroundImageFix" result="effect1_dropShadow_147_1710"/>
<feBlend mode="normal" in="SourceGraphic" in2="effect1_dropShadow_147_1710" result="shape"/>
</filter>
<clipPath id="clip0_147_1710">
<rect width="36" height="36" fill="white" transform="translate(0 0.00976562)"/>
</clipPath>
</defs>
</svg>
