<svg width="143" height="42" viewBox="0 0 143 42" fill="none" xmlns="http://www.w3.org/2000/svg">
<rect width="42" height="42" rx="2" fill="white" fill-opacity="0.2"/>
<rect width="42" height="42" rx="2" fill="#593FF6"/>
<path d="M18.418 32.632C18.418 33.0627 18.2787 33.4047 18 33.658C17.7467 33.886 17.4427 34 17.088 34H12.414C12.0593 34 11.7553 33.886 11.502 33.658C11.274 33.43 11.16 33.088 11.16 32.632V12.226C11.16 10.4273 11.54 9.13533 12.3 8.35C13.0853 7.56467 14.3393 7.172 16.062 7.172H19.444C23.5227 7.172 26.3727 7.514 27.994 8.198C29.3367 8.75533 30.312 9.68 30.92 10.972C31.528 12.2387 31.832 13.7333 31.832 15.456C31.832 17.6853 31.414 19.4207 30.578 20.662C29.7673 21.9033 28.4753 22.79 26.702 23.322C25.03 23.8287 22.6993 24.082 19.71 24.082H18.418V32.632ZM18.418 18.61H19.976C21.2427 18.61 22.1927 18.5087 22.826 18.306C23.3327 18.1287 23.7127 17.8247 23.966 17.394C24.2447 16.9633 24.384 16.4567 24.384 15.874C24.384 14.4047 23.9027 13.5053 22.94 13.176C22.3827 12.9987 21.4073 12.91 20.014 12.91H19.406C18.7473 12.91 18.418 13.29 18.418 14.05V18.61Z" fill="white"/>
<path d="M51.517 29.5V12.0455H58.4034C59.7273 12.0455 60.8551 12.2983 61.7869 12.804C62.7188 13.304 63.429 14 63.9176 14.892C64.4119 15.7784 64.6591 16.8011 64.6591 17.9602C64.6591 19.1193 64.4091 20.142 63.9091 21.0284C63.4091 21.9148 62.6847 22.6051 61.7358 23.0994C60.7926 23.5937 59.6506 23.8409 58.3097 23.8409H53.9205V20.8835H57.7131C58.4233 20.8835 59.0085 20.7614 59.4688 20.517C59.9347 20.267 60.2813 19.9233 60.5085 19.4858C60.7415 19.0426 60.858 18.5341 60.858 17.9602C60.858 17.3807 60.7415 16.875 60.5085 16.4432C60.2813 16.0057 59.9347 15.6676 59.4688 15.429C59.0028 15.1847 58.4119 15.0625 57.696 15.0625H55.2074V29.5H51.517ZM66.9879 29.5V16.4091H70.5078V18.6932H70.6442C70.8828 17.8807 71.2834 17.267 71.8459 16.8523C72.4084 16.4318 73.0561 16.2216 73.7891 16.2216C73.9709 16.2216 74.1669 16.233 74.3771 16.2557C74.5874 16.2784 74.772 16.3097 74.9311 16.3494V19.571C74.7607 19.5199 74.5249 19.4744 74.2237 19.4347C73.9226 19.3949 73.647 19.375 73.397 19.375C72.8629 19.375 72.3857 19.4915 71.9652 19.7244C71.5504 19.9517 71.2209 20.2699 70.9766 20.679C70.7379 21.0881 70.6186 21.5597 70.6186 22.0938V29.5H66.9879ZM82.1136 29.7557C80.7898 29.7557 79.6449 29.4744 78.679 28.9119C77.7188 28.3437 76.9773 27.554 76.4545 26.5426C75.9318 25.5256 75.6705 24.3466 75.6705 23.0057C75.6705 21.6534 75.9318 20.4716 76.4545 19.4602C76.9773 18.4432 77.7188 17.6534 78.679 17.0909C79.6449 16.5227 80.7898 16.2386 82.1136 16.2386C83.4375 16.2386 84.5795 16.5227 85.5398 17.0909C86.5057 17.6534 87.25 18.4432 87.7727 19.4602C88.2955 20.4716 88.5568 21.6534 88.5568 23.0057C88.5568 24.3466 88.2955 25.5256 87.7727 26.5426C87.25 27.554 86.5057 28.3437 85.5398 28.9119C84.5795 29.4744 83.4375 29.7557 82.1136 29.7557ZM82.1307 26.9432C82.733 26.9432 83.2358 26.7727 83.6392 26.4318C84.0426 26.0852 84.3466 25.6136 84.5511 25.017C84.7614 24.4205 84.8665 23.7415 84.8665 22.9801C84.8665 22.2188 84.7614 21.5398 84.5511 20.9432C84.3466 20.3466 84.0426 19.875 83.6392 19.5284C83.2358 19.1818 82.733 19.0085 82.1307 19.0085C81.5227 19.0085 81.0114 19.1818 80.5966 19.5284C80.1875 19.875 79.8778 20.3466 79.6676 20.9432C79.4631 21.5398 79.3608 22.2188 79.3608 22.9801C79.3608 23.7415 79.4631 24.4205 79.6676 25.017C79.8778 25.6136 80.1875 26.0852 80.5966 26.4318C81.0114 26.7727 81.5227 26.9432 82.1307 26.9432ZM96.8153 34.6818C95.6392 34.6818 94.6307 34.5199 93.7898 34.196C92.9545 33.8778 92.2898 33.4432 91.7955 32.892C91.3011 32.3409 90.9801 31.7216 90.8324 31.0341L94.1903 30.5824C94.2926 30.8438 94.4545 31.0881 94.6761 31.3153C94.8977 31.5426 95.1903 31.7244 95.554 31.8608C95.9233 32.0028 96.3722 32.0739 96.9006 32.0739C97.6903 32.0739 98.3409 31.8807 98.8523 31.4943C99.3693 31.1136 99.6278 30.4744 99.6278 29.5767V27.1818H99.4744C99.3153 27.5455 99.0767 27.8892 98.7585 28.2131C98.4403 28.5369 98.0312 28.8011 97.5312 29.0057C97.0312 29.2102 96.4347 29.3125 95.7415 29.3125C94.7585 29.3125 93.8636 29.0852 93.0568 28.6307C92.2557 28.1705 91.6165 27.4687 91.1392 26.5256C90.6676 25.5767 90.4318 24.3778 90.4318 22.929C90.4318 21.446 90.6733 20.2074 91.1562 19.2131C91.6392 18.2187 92.2813 17.4744 93.0824 16.9801C93.8892 16.4858 94.7727 16.2386 95.733 16.2386C96.4659 16.2386 97.0795 16.3636 97.5739 16.6136C98.0682 16.858 98.4659 17.1648 98.767 17.5341C99.0739 17.8977 99.3097 18.2557 99.4744 18.608H99.6108V16.4091H103.216V29.6278C103.216 30.7415 102.943 31.6733 102.398 32.4233C101.852 33.1733 101.097 33.7358 100.131 34.1108C99.1705 34.4915 98.0653 34.6818 96.8153 34.6818ZM96.892 26.5852C97.4773 26.5852 97.9716 26.4403 98.375 26.1506C98.7841 25.8551 99.0966 25.4347 99.3125 24.8892C99.5341 24.3381 99.6449 23.679 99.6449 22.9119C99.6449 22.1449 99.5369 21.4801 99.321 20.9176C99.1051 20.3494 98.7926 19.9091 98.3835 19.5966C97.9744 19.2841 97.4773 19.1278 96.892 19.1278C96.2955 19.1278 95.7926 19.2898 95.3835 19.6136C94.9744 19.9318 94.6648 20.375 94.4545 20.9432C94.2443 21.5114 94.1392 22.1676 94.1392 22.9119C94.1392 23.6676 94.2443 24.321 94.4545 24.8722C94.6705 25.4176 94.9801 25.8409 95.3835 26.142C95.7926 26.4375 96.2955 26.5852 96.892 26.5852ZM112.071 29.7557C110.724 29.7557 109.565 29.483 108.594 28.9375C107.628 28.3864 106.884 27.608 106.361 26.6023C105.838 25.5909 105.577 24.3949 105.577 23.0142C105.577 21.6676 105.838 20.4858 106.361 19.4688C106.884 18.4517 107.619 17.6591 108.568 17.0909C109.523 16.5227 110.642 16.2386 111.926 16.2386C112.79 16.2386 113.594 16.3778 114.338 16.6562C115.088 16.929 115.741 17.3409 116.298 17.892C116.861 18.4432 117.298 19.1364 117.611 19.9716C117.923 20.8011 118.08 21.7727 118.08 22.8864V23.8835H107.026V21.6335H114.662C114.662 21.1108 114.548 20.6477 114.321 20.2443C114.094 19.8409 113.778 19.5256 113.375 19.2983C112.977 19.0653 112.514 18.9489 111.986 18.9489C111.435 18.9489 110.946 19.0767 110.52 19.3324C110.099 19.5824 109.77 19.9205 109.531 20.3466C109.293 20.767 109.17 21.2358 109.165 21.7528V23.892C109.165 24.5398 109.284 25.0994 109.523 25.571C109.767 26.0426 110.111 26.4062 110.554 26.6619C110.997 26.9176 111.523 27.0455 112.131 27.0455C112.534 27.0455 112.903 26.9886 113.239 26.875C113.574 26.7614 113.861 26.5909 114.099 26.3636C114.338 26.1364 114.52 25.858 114.645 25.5284L118.003 25.75C117.832 26.5568 117.483 27.2614 116.955 27.8636C116.432 28.4602 115.756 28.9261 114.926 29.2614C114.102 29.5909 113.151 29.7557 112.071 29.7557ZM127.412 16.4091V19.1364H119.528V16.4091H127.412ZM121.318 13.2727H124.949V25.4773C124.949 25.8125 125 26.0739 125.102 26.2614C125.205 26.4432 125.347 26.571 125.528 26.6449C125.716 26.7187 125.932 26.7557 126.176 26.7557C126.347 26.7557 126.517 26.7415 126.688 26.7131C126.858 26.679 126.989 26.6534 127.08 26.6364L127.651 29.3381C127.469 29.3949 127.213 29.4602 126.884 29.5341C126.554 29.6136 126.153 29.6619 125.682 29.679C124.807 29.7131 124.04 29.5966 123.381 29.3295C122.727 29.0625 122.219 28.6477 121.855 28.0852C121.491 27.5227 121.313 26.8125 121.318 25.9545V13.2727ZM133.51 29.7472C132.675 29.7472 131.93 29.6023 131.277 29.3125C130.624 29.017 130.107 28.5824 129.726 28.0085C129.351 27.429 129.163 26.7074 129.163 25.8438C129.163 25.1165 129.297 24.5057 129.564 24.0114C129.831 23.517 130.195 23.1193 130.655 22.8182C131.115 22.517 131.638 22.2898 132.223 22.1364C132.814 21.983 133.433 21.875 134.081 21.8125C134.842 21.733 135.456 21.6591 135.922 21.5909C136.388 21.517 136.726 21.4091 136.936 21.267C137.146 21.125 137.251 20.9148 137.251 20.6364V20.5852C137.251 20.0455 137.081 19.6278 136.74 19.3324C136.405 19.0369 135.928 18.8892 135.308 18.8892C134.655 18.8892 134.135 19.0341 133.749 19.3239C133.362 19.608 133.107 19.9659 132.982 20.3977L129.624 20.125C129.794 19.3295 130.129 18.642 130.629 18.0625C131.129 17.4773 131.774 17.0284 132.564 16.7159C133.359 16.3977 134.28 16.2386 135.325 16.2386C136.053 16.2386 136.749 16.3239 137.413 16.4943C138.084 16.6648 138.678 16.929 139.195 17.2869C139.717 17.6449 140.129 18.1051 140.43 18.6676C140.732 19.2244 140.882 19.892 140.882 20.6705V29.5H137.439V27.6847H137.337C137.126 28.0938 136.845 28.4545 136.493 28.767C136.141 29.0739 135.717 29.3153 135.223 29.4915C134.729 29.6619 134.158 29.7472 133.51 29.7472ZM134.55 27.2415C135.084 27.2415 135.555 27.1364 135.964 26.9261C136.374 26.7102 136.695 26.4205 136.928 26.0568C137.161 25.6932 137.277 25.2812 137.277 24.821V23.4318C137.163 23.5057 137.007 23.5739 136.808 23.6364C136.615 23.6932 136.396 23.7472 136.152 23.7983C135.908 23.8437 135.663 23.8864 135.419 23.9261C135.175 23.9602 134.953 23.9915 134.754 24.0199C134.328 24.0824 133.956 24.1818 133.638 24.3182C133.32 24.4545 133.072 24.6392 132.896 24.8722C132.72 25.0994 132.632 25.3835 132.632 25.7244C132.632 26.2188 132.811 26.5966 133.169 26.858C133.533 27.1136 133.993 27.2415 134.55 27.2415Z" fill="black" fill-opacity="0.8"/>
</svg>
