<svg width="30" height="30" viewBox="0 0 30 30" fill="none" xmlns="http://www.w3.org/2000/svg">
<mask id="mask0_2166_37" style="mask-type:luminance" maskUnits="userSpaceOnUse" x="0" y="0" width="30" height="30">
<path d="M0.25 0.374023H29.8786V29.8005H0.25V0.374023Z" fill="white"/>
</mask>
<g mask="url(#mask0_2166_37)">
<path fill-rule="evenodd" clip-rule="evenodd" d="M10.641 15.0889C10.641 17.5146 12.621 19.4818 15.0632 19.4818C17.506 19.4818 19.486 17.5146 19.486 15.0889C19.486 12.6618 17.506 10.6946 15.0632 10.6946C12.621 10.6946 10.641 12.6618 10.641 15.0889ZM3.71246 13.9768C3.2696 13.5303 2.93175 12.9818 2.77246 12.3896L1.87389 9.06105C1.46675 7.55248 2.36818 6.33033 3.88603 6.33033H7.83103C7.83532 5.70319 7.98746 5.07819 8.29532 4.54605L10.031 1.56248C10.8153 0.210334 12.3232 -0.0218086 13.3953 1.04533L16.186 3.81605C16.6353 3.37533 17.1875 3.04033 17.7832 2.88033L21.1353 1.98962C22.6532 1.58533 23.8839 2.48033 23.8839 3.98819V7.90676C24.5153 7.91248 25.1446 8.06176 25.6789 8.36891L28.6832 10.0918C30.0446 10.8718 30.2775 12.3696 29.2046 13.436L26.4832 16.1389C26.9382 16.591 27.286 17.1489 27.4489 17.7518L28.3475 21.0818C28.7532 22.5889 27.8518 23.8103 26.3346 23.8103H22.4867C22.4867 24.451 22.3346 25.0889 22.021 25.6311L20.286 28.6153C19.5003 29.9675 17.9932 30.1989 16.921 29.1325L14.1989 26.4289C13.7439 26.8818 13.1825 27.2268 12.5753 27.3882L9.22318 28.281C7.70603 28.6846 6.47603 27.7896 6.47603 26.2811V22.2725C5.76818 22.3068 5.04889 22.1582 4.44889 21.8153L1.4446 20.0918C0.0838896 19.3118 -0.148968 17.8139 0.924604 16.7489L3.71318 13.9775" fill="#FF7C00"/>
</g>
<path fill-rule="evenodd" clip-rule="evenodd" d="M9.37032 9.47596H3.92032L3.77747 8.93024C3.68318 8.57453 3.86604 8.36596 4.22032 8.36596H8.23461L9.37032 9.47596ZM15.0453 9.04953C14.1304 9.05464 13.228 9.2635 12.4039 9.66096L9.69675 6.97167C9.44318 6.72024 9.4189 6.36167 9.60318 6.04667L10.7618 4.07024L15.0489 8.32739L15.0453 9.04953ZM15.0582 7.13953L11.211 3.30524L11.4925 2.82524C11.6782 2.5081 11.9568 2.48881 12.2068 2.7381L15.0453 5.55667L15.0582 7.13953ZM19.3746 10.8252C18.7232 10.1845 17.9366 9.69785 17.0725 9.40096V5.59739C17.0725 5.24381 17.311 4.97096 17.6646 4.87881L19.8903 4.29453V10.316L19.3746 10.8252ZM20.7446 9.48239V4.06881L21.2946 3.92739C21.651 3.83381 21.8625 4.01453 21.8625 4.36667V8.35453L20.7446 9.48239ZM21.1732 15.121C21.1674 14.2112 20.9573 13.3143 20.5582 12.4967L23.2653 9.80667C23.5182 9.55596 23.8796 9.53096 24.196 9.71453L26.186 10.866L21.8996 15.1231L21.1725 15.121H21.1732ZM23.0968 15.1338L26.9568 11.3124L27.4396 11.591C27.7582 11.776 27.7782 12.0524 27.5275 12.301L24.6896 15.121L23.0968 15.1338ZM19.3868 19.421C20.0297 18.7756 20.5194 17.9939 20.8196 17.1338H24.6482C25.0053 17.1338 25.2789 17.371 25.3718 17.7217L25.9596 19.9345H19.8982L19.3868 19.421ZM20.7382 20.7817L26.1868 20.7902L26.3296 21.3281C26.4246 21.6824 26.2403 21.891 25.8875 21.891H21.8732L20.7382 20.7817ZM15.0618 21.2081C15.9772 21.203 16.88 20.9941 17.7046 20.5967L20.411 23.2867C20.6632 23.5367 20.6896 23.8967 20.5039 24.211L19.3453 26.1874L15.0589 21.9302L15.0618 21.2081ZM15.0496 23.1188L18.896 26.9524L18.6146 27.4331C18.4289 27.7502 18.151 27.7695 17.9003 27.5217L15.0618 24.7002L15.0496 23.1188ZM10.7332 19.4331C11.3849 20.0736 12.1718 20.56 13.036 20.8567V24.661C13.036 25.0152 12.7968 25.2867 12.4432 25.3802L10.216 25.9631V19.9417L10.7332 19.4331ZM9.36389 20.776V26.1888L8.81318 26.3302C8.45675 26.4245 8.24604 26.2431 8.24604 25.8902V21.9038L9.36389 20.776ZM8.93389 15.1367C8.93916 16.0468 9.14936 16.944 9.54889 17.7617L6.84247 20.4502C6.59032 20.701 6.22818 20.726 5.91247 20.5431L3.92104 19.391L8.20818 15.1338L8.93389 15.1367ZM7.01104 15.1245L3.15175 18.9467L2.66818 18.666C2.3489 18.481 2.32889 18.2052 2.57961 17.9567L5.41747 15.1367L7.01104 15.1245ZM10.721 10.836C10.078 11.4817 9.58813 12.2635 9.28747 13.1238H5.45889C5.10175 13.1238 4.82818 12.8881 4.73532 12.5352L4.14747 10.3245H10.2089L10.721 10.836Z" fill="#F00041"/>
</svg>
