<svg width="36" height="36" viewBox="0 0 36 36" fill="none" xmlns="http://www.w3.org/2000/svg">
<g clip-path="url(#clip0_18475_7117)">
<rect width="36" height="36" rx="6" fill="white"/>
<rect width="36" height="36" rx="6" fill="#CB1D63" fill-opacity="0.33"/>
<g clip-path="url(#clip1_18475_7117)">
<path d="M6 11C6 8.79086 7.79086 7 10 7H40V38H6V11Z" fill="white"/>
<rect x="-0.75" y="6.25" width="10.5" height="31.5" stroke="#CB1D63" stroke-opacity="0.08" stroke-width="0.5"/>
<rect x="-0.75" y="6.25" width="10.5" height="31.5" stroke="#CB1D63" stroke-opacity="0.08" stroke-width="0.5"/>
<rect x="-0.75" y="6.25" width="10.5" height="31.5" stroke="#CB1D63" stroke-opacity="0.08" stroke-width="0.5"/>
<rect x="15.25" y="6.25" width="9.5" height="31.5" stroke="#CB1D63" stroke-opacity="0.08" stroke-width="0.5"/>
<rect x="15.25" y="6.25" width="9.5" height="31.5" stroke="#CB1D63" stroke-opacity="0.08" stroke-width="0.5"/>
<rect x="15.25" y="6.25" width="9.5" height="31.5" stroke="#CB1D63" stroke-opacity="0.08" stroke-width="0.5"/>
<rect x="30.25" y="6.25" width="9.5" height="31.5" stroke="#CB1D63" stroke-opacity="0.08" stroke-width="0.5"/>
<rect x="30.25" y="6.25" width="9.5" height="31.5" stroke="#CB1D63" stroke-opacity="0.08" stroke-width="0.5"/>
<rect x="30.25" y="6.25" width="9.5" height="31.5" stroke="#CB1D63" stroke-opacity="0.08" stroke-width="0.5"/>
<rect x="13.6953" y="21.3038" width="9.77406" height="9.77" rx="1" transform="rotate(-45 13.6953 21.3038)" fill="white"/>
<rect x="13.6953" y="21.3038" width="9.77406" height="9.77" rx="1" transform="rotate(-45 13.6953 21.3038)" fill="#CB1D63" fill-opacity="0.68"/>
</g>
</g>
<rect x="0.5" y="0.5" width="35" height="35" rx="5.5" stroke="#CB1D63" stroke-opacity="0.16"/>
<defs>
<clipPath id="clip0_18475_7117">
<rect width="36" height="36" rx="6" fill="white"/>
</clipPath>
<clipPath id="clip1_18475_7117">
<path d="M6 11C6 8.79086 7.79086 7 10 7H40V38H6V11Z" fill="white"/>
</clipPath>
</defs>
</svg>
