<svg width="159" height="26" viewBox="0 0 159 26" fill="none" xmlns="http://www.w3.org/2000/svg">
<path d="M76.2592 6.09545C76.6077 6.31124 76.9204 6.54043 77.2365 6.80119C77.3408 6.88642 77.445 6.97166 77.5524 7.05947C78.8101 8.19846 79.7739 9.74856 79.8752 11.4576C79.4069 11.9258 78.0324 11.7178 77.4045 11.7278C76.1335 11.704 76.1335 11.704 75.5098 11.2939C75.2173 10.8965 74.9869 10.4944 74.7531 10.0607C73.8762 9.20529 72.8689 8.96415 71.6779 8.90628C70.5064 8.9326 69.6625 9.28899 68.804 10.0855C67.7487 11.2225 67.5097 12.1144 67.5551 13.6609C67.6761 14.8887 68.2176 15.7632 69.1593 16.5403C70.0324 17.0772 70.7697 17.2836 71.7943 17.2684C71.9034 17.2675 72.0126 17.2665 72.125 17.2656C72.986 17.2396 73.5971 17.0869 74.2875 16.5797C74.4939 16.4452 74.4939 16.4452 74.7046 16.308C75.0691 15.9965 75.0691 15.9965 75.1988 15.6562C75.3742 15.2689 75.5303 15.0113 75.8396 14.7171C76.5029 14.555 77.1404 14.5928 77.8186 14.6298C78.089 14.6362 78.089 14.6362 78.3649 14.6428C79.6851 14.6822 79.6851 14.6822 79.8752 14.8723C79.8396 16.4738 78.8498 17.9052 77.7755 19.0243C75.9021 20.729 73.6144 21.4502 71.1195 21.424C68.8581 21.2912 66.8617 20.1469 65.3314 18.5189C63.8658 16.8324 63.281 14.705 63.3728 12.5126C63.559 10.3051 64.5187 8.65944 66.0611 7.11162C66.1472 7.02198 66.2332 6.93234 66.3218 6.83999C67.1268 6.07106 68.1457 5.66442 69.1654 5.24905C69.3081 5.19062 69.4507 5.1322 69.5977 5.07201C71.9158 4.45235 74.2013 4.98918 76.2592 6.09545Z" fill="#653DF5"/>
<path d="M52.6883 5.34362C52.9579 5.34478 53.2276 5.34566 53.4972 5.34628C54.2036 5.34864 54.9098 5.35473 55.6161 5.36162C56.3382 5.368 57.0603 5.37081 57.7824 5.37394C59.1968 5.38058 60.611 5.39149 62.0254 5.40425C62.0254 6.37744 62.0254 7.35064 62.0254 8.35332C58.235 8.35332 54.4447 8.35332 50.5395 8.35332C50.5395 9.27529 50.5395 10.1973 50.5395 11.1472C54.3299 11.1472 58.1202 11.1472 62.0254 11.1472C62.0254 12.0691 62.0254 12.9911 62.0254 13.941C58.235 13.941 54.4447 13.941 50.5395 13.941C50.5395 14.9142 50.5395 15.8874 50.5395 16.8901C54.2786 16.8901 58.0177 16.8901 61.8701 16.8901C61.8701 17.8121 61.8701 18.734 61.8701 19.6839C60.3131 19.7015 58.7561 19.7157 57.1989 19.7241C56.4758 19.7282 55.7528 19.7337 55.0297 19.7425C54.3312 19.7509 53.6328 19.7556 52.9344 19.7576C52.6685 19.759 52.4027 19.7618 52.1368 19.766C49.6238 19.8041 49.6238 19.8041 48.7329 19.1223C47.957 18.3344 47.7285 17.63 47.7133 16.5541C47.7103 16.3567 47.7073 16.1592 47.7042 15.9558C47.7019 15.7397 47.6998 15.5237 47.6978 15.3076C47.6968 15.1985 47.6957 15.0894 47.6947 14.9769C47.6896 14.3986 47.6858 13.8204 47.6828 13.2421C47.68 12.7654 47.6747 12.2889 47.6669 11.8123C47.6575 11.2351 47.6528 10.658 47.6513 10.0807C47.65 9.86174 47.647 9.64281 47.6425 9.42392C47.6188 8.23016 47.6236 7.25145 48.4014 6.29533C49.5982 5.12186 51.1159 5.32373 52.6883 5.34362Z" fill="#653DF5"/>
<path d="M99.4319 5.40426C100.48 6.13886 101.361 7.15964 102.261 8.06688C102.521 8.32819 102.781 8.58899 103.04 8.84967C103.591 9.40164 104.14 9.95424 104.69 10.5069C105.33 11.151 105.971 11.7948 106.612 12.438C106.868 12.695 107.124 12.9525 107.379 13.21C107.535 13.3666 107.691 13.5231 107.847 13.6796C107.984 13.8166 108.12 13.9536 108.26 14.0948C108.564 14.4126 108.564 14.4126 108.9 14.5619C108.9 11.5399 108.9 8.51785 108.9 5.40426C109.873 5.40426 110.846 5.40426 111.849 5.40426C111.86 7.11103 111.868 8.81779 111.873 10.5246C111.876 11.3171 111.879 12.1096 111.884 12.9022C111.889 13.667 111.892 14.4319 111.893 15.1967C111.894 15.4885 111.896 15.7803 111.898 16.0721C111.902 16.4808 111.902 16.8895 111.902 17.2983C111.904 17.4188 111.905 17.5394 111.907 17.6636C111.903 18.3659 111.816 18.814 111.383 19.3735C110.882 19.7366 110.438 19.7376 109.831 19.6839C109.465 19.4417 109.465 19.4417 109.11 19.098C108.976 18.9698 108.842 18.8415 108.704 18.7094C108.564 18.57 108.424 18.4306 108.279 18.287C108.066 18.0791 108.066 18.0791 107.849 17.8669C107.383 17.4107 106.924 16.9489 106.464 16.4869C106.296 16.3183 106.127 16.1498 105.959 15.9813C105.521 15.5431 105.084 15.1043 104.647 14.6655C104.12 14.1362 103.592 13.6075 103.064 13.0788C102.267 12.2801 101.47 11.4808 100.674 10.6815C100.622 13.6523 100.571 16.6231 100.518 19.6839C99.5452 19.6839 98.572 19.6839 97.5694 19.6839C97.5553 17.9569 97.5439 16.23 97.5372 14.5029C97.534 13.701 97.5296 12.8991 97.5225 12.0971C97.5158 11.3232 97.5121 10.5493 97.5105 9.7754C97.5093 9.48015 97.5071 9.1849 97.5037 8.88967C97.4992 8.47606 97.4986 8.06262 97.4989 7.64899C97.4967 7.52696 97.4944 7.40493 97.4921 7.27921C97.4965 6.69824 97.5479 6.36901 97.8648 5.87512C98.3813 5.37417 98.7174 5.29841 99.4319 5.40426Z" fill="#653DF5"/>
<path d="M128.923 5.40419C129.845 5.40419 130.767 5.40419 131.717 5.40419C131.717 7.29935 131.717 9.19451 131.717 11.1471C133.356 10.998 133.721 10.9223 134.729 9.83324C134.899 9.65897 134.899 9.65897 135.073 9.48119C135.433 9.11195 135.786 8.73773 136.14 8.36295C136.5 7.99001 136.86 7.61815 137.221 7.24639C137.444 7.01533 137.666 6.78337 137.888 6.55041C137.988 6.44528 138.088 6.34015 138.191 6.23183C138.279 6.13924 138.366 6.04665 138.456 5.95125C139.006 5.42031 139.355 5.36665 140.095 5.37387C140.366 5.37537 140.366 5.37537 140.642 5.3769C140.831 5.37951 141.019 5.38211 141.214 5.38479C141.404 5.38619 141.594 5.38759 141.791 5.38903C142.261 5.39269 142.732 5.39826 143.202 5.40419C143.202 6.37738 143.202 7.35057 143.202 8.35325C142.554 8.27162 142.554 8.27162 141.893 8.18834C140.665 8.14803 139.901 8.57443 139.028 9.38276C138.038 10.3331 137.117 11.3529 136.218 12.3888C136.63 13.3447 137.429 14.0789 138.139 14.8237C138.257 14.9478 138.257 14.9478 138.377 15.0744C139.283 16.0055 140.076 16.7497 141.424 16.8905C142.019 16.877 142.611 16.7996 143.202 16.7348C143.202 17.708 143.202 18.6812 143.202 19.6839C142.555 19.7133 141.91 19.7348 141.262 19.7518C140.989 19.7654 140.989 19.7654 140.711 19.7794C139.184 19.8094 139.184 19.8094 138.554 19.2807C138.339 19.0575 138.131 18.8288 137.925 18.5974C137.763 18.4271 137.6 18.2575 137.436 18.0885C137.346 17.9953 137.256 17.9021 137.164 17.8062C137.07 17.7091 136.976 17.6121 136.879 17.5121C136.686 17.3113 136.493 17.1104 136.299 16.9094C136.201 16.8076 136.103 16.7057 136.002 16.6008C135.803 16.3922 135.605 16.1823 135.408 15.9713C135.119 15.6631 134.826 15.3602 134.532 15.0578C134.446 14.9635 134.36 14.8693 134.272 14.7722C133.408 13.9026 133.124 14.0689 131.717 13.941C131.717 15.8361 131.717 17.7313 131.717 19.6839C130.795 19.6839 129.873 19.6839 128.923 19.6839C128.923 14.9716 128.923 10.2593 128.923 5.40419Z" fill="#653DF5"/>
<path d="M113.246 5.40422C117.958 5.40422 122.671 5.40422 127.526 5.40422C127.526 6.37742 127.526 7.35061 127.526 8.35329C125.631 8.35329 123.735 8.35329 121.783 8.35329C121.783 11.1192 121.783 13.8851 121.783 16.7348C123.678 16.7348 125.573 16.7348 127.526 16.7348C127.526 17.708 127.526 18.6812 127.526 19.6839C122.813 19.6839 118.101 19.6839 113.246 19.6839C113.246 18.7107 113.246 17.7375 113.246 16.7348C115.09 16.7348 116.934 16.7348 118.834 16.7348C118.834 13.9689 118.834 11.203 118.834 8.35329C116.99 8.35329 115.146 8.35329 113.246 8.35329C113.246 7.3801 113.246 6.40691 113.246 5.40422Z" fill="#653DF5"/>
<path d="M81.8929 5.40422C82.8148 5.40422 83.7368 5.40422 84.6867 5.40422C84.6867 7.29939 84.6867 9.19455 84.6867 11.1471C87.5551 11.1471 90.4234 11.1471 93.3787 11.1471C93.3787 9.25198 93.3787 7.35682 93.3787 5.40422C94.3007 5.40422 95.2227 5.40422 96.1726 5.40422C96.1726 10.1165 96.1726 14.8288 96.1726 19.6839C95.2506 19.6839 94.3286 19.6839 93.3787 19.6839C93.3787 17.7887 93.3787 15.8936 93.3787 13.941C90.5104 13.941 87.642 13.941 84.6867 13.941C84.6867 15.8362 84.6867 17.7313 84.6867 19.6839C83.7648 19.6839 82.8428 19.6839 81.8929 19.6839C81.8929 14.9716 81.8929 10.2593 81.8929 5.40422Z" fill="#653DF5"/>
<path d="M32.0691 5.40422C36.7814 5.40422 41.4937 5.40422 46.3488 5.40422C46.3488 6.37742 46.3488 7.35061 46.3488 8.35329C44.4536 8.35329 42.5585 8.35329 40.6059 8.35329C40.6059 12.0924 40.6059 15.8315 40.6059 19.6839C39.6327 19.6839 38.6595 19.6839 37.6568 19.6839C37.6568 15.9448 37.6568 12.2057 37.6568 8.35329C35.8129 8.35329 33.9689 8.35329 32.0691 8.35329C32.0691 7.3801 32.0691 6.40691 32.0691 5.40422Z" fill="#653DF5"/>
<path fill-rule="evenodd" clip-rule="evenodd" d="M145.79 5.81829C146.754 5.21289 147.891 5.31513 148.989 5.32191C149.204 5.32149 149.418 5.32073 149.632 5.31995C150.08 5.31904 150.528 5.32056 150.975 5.32347C151.546 5.32701 152.117 5.32484 152.688 5.32113C153.13 5.31887 153.573 5.31952 154.015 5.32113C154.327 5.32173 154.639 5.31992 154.951 5.31799C156.156 5.33029 157.113 5.38908 158.032 6.24969C158.747 7.04645 158.747 7.7325 158.741 8.759C158.741 8.87718 158.741 8.99544 158.741 9.1172C158.741 9.50684 158.74 9.89648 158.739 10.2861C158.739 10.5567 158.738 10.8275 158.738 11.098C158.738 11.8093 158.736 12.5206 158.734 13.2319C158.733 13.9581 158.732 14.6846 158.731 15.4108C158.73 16.8352 158.727 18.2597 158.724 19.6841H155.93V13.9409H147.393V19.6841H144.599C144.578 18.0866 144.561 16.489 144.551 14.8914C144.546 14.1494 144.54 13.4073 144.529 12.6655C144.519 11.949 144.514 11.2325 144.511 10.5159C144.509 10.2432 144.506 9.97044 144.501 9.69774C144.458 7.2954 144.458 7.29521 144.993 6.50728C145.253 6.24266 145.253 6.24259 145.53 6.02499C145.659 5.92269 145.659 5.92263 145.79 5.81829ZM147.393 8.35344V11.147H155.93V8.35344H147.393Z" fill="#653DF5"/>
<path d="M72.7644 11.3218C73.2959 11.6761 73.536 11.9726 73.8218 12.5441C73.9179 13.2174 73.8736 13.5342 73.5501 14.135C73.1493 14.6248 72.8473 14.9746 72.2126 15.1002C71.5357 15.1087 71.0293 15.1129 70.4847 14.6783C69.9715 14.1137 69.8122 13.8649 69.728 13.1067C69.7978 12.4318 69.9728 12.1292 70.4071 11.6128C71.1578 11.004 71.8702 11.0062 72.7644 11.3218Z" fill="#653DF5"/>
<path d="M13.0617 0.000109723C13.1128 0.000210728 13.1639 0.000311734 13.2165 0.0004158C16.7892 0.0170978 20.0213 1.53939 22.5156 4.05068C23.7977 5.3793 24.716 7.02319 25.3528 8.74317C25.3827 8.82057 25.4126 8.89798 25.4435 8.97773C25.5827 9.35754 25.7276 9.782 25.615 10.1853C25.4302 10.4251 25.3338 10.5055 25.0311 10.5552C24.9293 10.5573 24.8275 10.5576 24.7257 10.5565C24.6699 10.5572 24.6141 10.5579 24.5567 10.5586C24.3727 10.5604 24.1889 10.5597 24.0049 10.5589C23.8768 10.5593 23.7487 10.5598 23.6207 10.5603C23.3524 10.5611 23.0842 10.5607 22.8159 10.5594C22.4722 10.5579 22.1287 10.5597 21.785 10.5624C21.5206 10.5641 21.2562 10.5639 20.9917 10.5632C20.865 10.5631 20.7383 10.5636 20.6116 10.5647C20.4344 10.566 20.2574 10.5648 20.0802 10.5629C20.028 10.5638 19.9757 10.5647 19.9219 10.5657C19.7291 10.5616 19.5692 10.554 19.4155 10.4296C19.2245 10.2059 19.0872 9.94795 18.9492 9.68959C18.0493 8.06013 16.6113 6.9943 14.8444 6.44653C13.0373 5.97469 11.1806 6.26188 9.56491 7.17171C7.88903 8.21913 6.82624 9.80218 6.37262 11.7115C6.19722 12.7527 6.2413 14.0479 6.60481 15.0362C6.62931 15.1092 6.65382 15.1822 6.67907 15.2575C7.28272 16.9525 8.45941 18.3166 10.0799 19.1074C10.2744 19.1977 10.4707 19.2813 10.6691 19.3627C10.7461 19.3946 10.7461 19.3946 10.8247 19.4272C12.5204 20.0567 14.369 19.8251 15.9885 19.1145C16.6241 18.822 17.1553 18.4427 17.6832 17.9861C17.728 17.9479 17.7729 17.9097 17.8191 17.8703C18.4104 17.3246 18.831 16.5802 19.2111 15.8794C19.3809 15.5919 19.3809 15.5919 19.5186 15.4951C19.7056 15.475 19.8783 15.4669 20.0653 15.4676C20.1211 15.467 20.1768 15.4664 20.2343 15.4659C20.419 15.4643 20.6036 15.4643 20.7882 15.4644C20.9165 15.4639 21.0448 15.4634 21.173 15.4628C21.442 15.462 21.7111 15.4619 21.9801 15.4622C22.3248 15.4626 22.6694 15.4606 23.0141 15.458C23.2791 15.4563 23.5441 15.4561 23.8091 15.4563C23.9362 15.4562 24.0632 15.4556 24.1903 15.4544C24.3681 15.453 24.5458 15.4536 24.7236 15.4547C24.7761 15.4539 24.8285 15.453 24.8826 15.4521C25.1509 15.4562 25.2719 15.4828 25.4839 15.653C25.6553 15.875 25.6562 15.9776 25.6401 16.2473C25.5928 16.5599 25.4974 16.8522 25.3938 17.1503C25.3703 17.2189 25.3468 17.2875 25.3225 17.3581C24.7858 18.8801 24.0089 20.2612 22.9274 21.4604C22.8536 21.5477 22.7798 21.6351 22.7061 21.7226C21.2587 23.3509 19.4584 24.5094 17.421 25.2624C17.3549 25.2875 17.3549 25.2875 17.2875 25.3131C16.454 25.6268 15.6128 25.7885 14.7333 25.9179C14.6612 25.9295 14.5891 25.9411 14.5148 25.953C14.2644 25.9848 14.0184 25.9952 13.7664 25.9968C13.7188 25.9973 13.6711 25.9977 13.622 25.9982C13.468 25.9993 13.314 25.9997 13.1601 25.9999C13.1073 25.9999 13.0546 26 13.0003 26C10.4037 25.9965 7.80796 25.3035 5.68707 23.7547C5.62209 23.7083 5.55711 23.6619 5.49016 23.6141C5.08566 23.3191 4.71079 23.0032 4.34453 22.6621C4.20364 22.5317 4.06002 22.4073 3.91306 22.2839C2.4882 21.0321 1.51156 19.2756 0.83619 17.5272C0.796136 17.4277 0.796136 17.4277 0.755274 17.3262C-0.441576 14.2374 -0.148391 10.6457 1.15874 7.65349C1.73372 6.38753 2.51996 5.24967 3.46136 4.22927C3.56508 4.1156 3.66212 4.00065 3.75737 3.88C3.9664 3.63881 4.19615 3.44022 4.44158 3.23676C4.47522 3.20852 4.50886 3.18027 4.54352 3.15117C6.19628 1.76873 8.0412 0.811108 10.1364 0.295096C10.1869 0.282558 10.2374 0.27002 10.2894 0.257102C11.2009 0.0482098 12.1298 -0.00271785 13.0617 0.000109723Z" fill="#653DF5"/>
<path d="M12.992 9.90665C13.0387 9.90615 13.0854 9.90564 13.1335 9.90512C13.9291 9.90801 14.6916 10.2288 15.2702 10.7773C15.9824 11.5526 16.169 12.3034 16.1349 13.3331C16.112 13.7194 16.0306 14.0386 15.8476 14.3806C15.8198 14.4367 15.792 14.4928 15.7634 14.5506C15.3737 15.2714 14.7347 15.7456 13.9555 15.9926C13.1494 16.2131 12.3263 16.154 11.5867 15.7572C10.8352 15.3071 10.2903 14.6727 10.0299 13.8278C9.82477 12.9376 9.94996 12.1043 10.415 11.316C11.0209 10.4298 11.9127 9.895 12.992 9.90665Z" fill="#653DF5"/>
</svg>
