<svg width="36" height="37" viewBox="0 0 36 37" fill="none" xmlns="http://www.w3.org/2000/svg">
<g clip-path="url(#clip0_147_1854)">
<g clip-path="url(#clip1_147_1854)">
<g clip-path="url(#clip2_147_1854)">
<mask id="mask0_147_1854" style="mask-type:luminance" maskUnits="userSpaceOnUse" x="0" y="0" width="36" height="37">
<path d="M0 6.01953C0 2.70582 2.68629 0.0195312 6 0.0195312H30C33.3137 0.0195312 36 2.70582 36 6.01953V30.0195C36 33.3332 33.3137 36.0195 30 36.0195H6C2.68629 36.0195 0 33.3332 0 30.0195V6.01953Z" fill="white"/>
</mask>
<g mask="url(#mask0_147_1854)">
<path d="M0 6.01953C0 2.70582 2.68629 0.0195312 6 0.0195312H30C33.3137 0.0195312 36 2.70582 36 6.01953V30.0195C36 33.3332 33.3137 36.0195 30 36.0195H6C2.68629 36.0195 0 33.3332 0 30.0195V6.01953Z" fill="#FFE0A1"/>
<path fill-rule="evenodd" clip-rule="evenodd" d="M8.38848 6.20855C9.44128 6.1062 11.6642 6.01953 13.5 6.01953C15.3358 6.01953 17.5587 6.1062 18.6115 6.20855C20.2096 6.36393 20.631 7.49408 20.7975 8.98562C20.9071 9.96824 21 11.3061 21 13.0195C21 14.7833 20.9016 16.1492 20.7878 17.1392C20.6221 18.5794 20.2582 19.6803 18.7042 19.8325C17.6669 19.9341 15.4314 20.0195 13.5 20.0195C11.5686 20.0195 9.33305 19.9341 8.29576 19.8325C6.74179 19.6803 6.37787 18.5794 6.21225 17.1392C6.0984 16.1492 6 14.7833 6 13.0195C6 11.3061 6.09286 9.96824 6.20252 8.98562C6.369 7.49408 6.7904 6.36393 8.38848 6.20855Z" fill="#6049E7"/>
<path fill-rule="evenodd" clip-rule="evenodd" d="M32.3885 29.2085C33.4413 29.1062 35.6642 29.0195 37.5 29.0195C39.3358 29.0195 41.5587 29.1062 42.6115 29.2085C44.2096 29.3639 44.631 30.494 44.7975 31.9856C44.9071 32.9682 45 34.3061 45 36.0195C45 37.7833 44.9016 39.1492 44.7878 40.1392C44.6221 41.5794 44.2582 42.6803 42.7042 42.8325C41.6669 42.9341 39.4314 43.0195 37.5 43.0195C35.5686 43.0195 33.3331 42.9341 32.2958 42.8325C30.7418 42.6803 30.3779 41.5794 30.2122 40.1392C30.0984 39.1492 30 37.7833 30 36.0195C30 34.3061 30.0929 32.9682 30.2025 31.9856C30.369 30.494 30.7904 29.3639 32.3885 29.2085Z" fill="white"/>
<path d="M9 10.5195C9 9.6911 9.67157 9.01953 10.5 9.01953H14.5C15.3284 9.01953 16 9.6911 16 10.5195C16 11.3479 15.3284 12.0195 14.5 12.0195H10.5C9.67157 12.0195 9 11.3479 9 10.5195Z" fill="#F8FAFF"/>
<path d="M22.5 15.2695C20.6521 15.2695 18.4025 15.3564 17.3159 15.462C16.3204 15.5588 15.6002 15.9822 15.1348 16.6797C14.7041 17.3251 14.543 18.133 14.4572 18.9024C14.3443 19.9133 14.25 21.279 14.25 23.0195C14.25 24.8113 14.35 26.2058 14.4672 27.2249C14.5514 27.9576 14.6963 28.7448 15.1031 29.3754C15.5478 30.0647 16.246 30.4832 17.2226 30.5789C18.2949 30.684 20.558 30.7695 22.5 30.7695C24.442 30.7695 26.7051 30.684 27.7774 30.5789C28.754 30.4832 29.4522 30.0647 29.8969 29.3754C30.3037 28.7448 30.4486 27.9576 30.5328 27.2249C30.65 26.2058 30.75 24.8113 30.75 23.0195C30.75 21.279 30.6557 19.9133 30.5428 18.9024C30.457 18.133 30.2959 17.3251 29.8652 16.6797C29.3998 15.9822 28.6796 15.5588 27.6841 15.462C26.5975 15.3564 24.3479 15.2695 22.5 15.2695Z" fill="#FFBA1A" stroke="#FFE0A1" stroke-width="1.5" stroke-linecap="round" stroke-linejoin="round"/>
<path d="M25.5 24.0195H19.5C18.6716 24.0195 18 24.6911 18 25.5195C18 26.348 18.6716 27.0195 19.5 27.0195H25.5C26.3284 27.0195 27 26.348 27 25.5195C27 24.6911 26.3284 24.0195 25.5 24.0195Z" fill="#F8FAFF"/>
<path d="M18 20.5195C18 19.6911 18.6716 19.0195 19.5 19.0195H22.5C23.3284 19.0195 24 19.6911 24 20.5195C24 21.3479 23.3284 22.0195 22.5 22.0195H19.5C18.6716 22.0195 18 21.3479 18 20.5195Z" fill="#F8FAFF"/>
<path d="M11 24.0195V36.0195" stroke="#BBBBBB" stroke-width="1.5" stroke-linecap="round"/>
<path d="M26 11.0195H38" stroke="#BBBBBB" stroke-width="1.5" stroke-linecap="round"/>
<path d="M24 11.0195C24 9.91496 24.8954 9.01953 26 9.01953C27.1046 9.01953 28 9.91496 28 11.0195C28 12.1241 27.1046 13.0195 26 13.0195C24.8954 13.0195 24 12.1241 24 11.0195Z" fill="#808080"/>
<path d="M9 24.0195C9 22.9149 9.89543 22.0195 11 22.0195C12.1046 22.0195 13 22.9149 13 24.0195C13 25.1241 12.1046 26.0195 11 26.0195C9.89543 26.0195 9 25.1241 9 24.0195Z" fill="#808080"/>
</g>
<path d="M0.5 6.01953C0.5 2.98196 2.96243 0.519531 6 0.519531H30C33.0376 0.519531 35.5 2.98196 35.5 6.01953V30.0195C35.5 33.0571 33.0376 35.5195 30 35.5195H6C2.96243 35.5195 0.5 33.0571 0.5 30.0195V6.01953Z" stroke="black" stroke-opacity="0.07"/>
</g>
</g>
</g>
<defs>
<clipPath id="clip0_147_1854">
<rect width="36" height="36" fill="white" transform="translate(0 0.0195312)"/>
</clipPath>
<clipPath id="clip1_147_1854">
<rect width="36" height="36" fill="white" transform="translate(0 0.0195312)"/>
</clipPath>
<clipPath id="clip2_147_1854">
<rect width="36" height="36" fill="white" transform="translate(0 0.0195312)"/>
</clipPath>
</defs>
</svg>
